<svg id="图层_1" data-name="图层 1" xmlns="http://www.w3.org/2000/svg" viewBox="0 0 218.75 384.74"><path d="M878.51,592.37,1015.9,753.55l.15-.06L960.62,619.27l1.12-.47h64.73l-127-168.3,45.07,141.87ZM1061.6,424.64,1062.74,780H847V422.85h70.1V398.76l83-.5v26.38Z" transform="translate(-845.5 -396.76)"/><polygon points="216.1 27.89 217.24 383.24 1.5 383.24 1.5 26.1 71.59 26.1 71.59 2 154.59 1.51 154.59 27.89 216.1 27.89" fill="none" stroke="#000" stroke-miterlimit="10" stroke-width="3"/><polyline points="99.07 195.62 54 53.75 180.97 222.04" fill="none" stroke="#000" stroke-miterlimit="10" stroke-width="3"/><polyline points="31.7 195.62 33.01 195.62 99.07 195.62 100.39 195.62" fill="none" stroke="#000" stroke-miterlimit="10" stroke-width="3"/><line x1="33.01" y1="195.62" x2="170.4" y2="356.8" fill="none" stroke="#000" stroke-miterlimit="10" stroke-width="3"/><polyline points="184.93 222.04 180.97 222.04 116.24 222.04" fill="none" stroke="#000" stroke-miterlimit="10" stroke-width="3"/><polyline points="177.99 374.74 170.55 356.73 115.12 222.51 114.92 222.04" fill="none" stroke="#000" stroke-miterlimit="10" stroke-width="3"/></svg>