<svg id="图层_1" data-name="图层 1" xmlns="http://www.w3.org/2000/svg" viewBox="0 0 557 760"><rect x="66" y="157.97" width="419" height="293.79" rx="22" fill="#fff"/><path d="M917.78,899.48H430.22A27.22,27.22,0,0,1,403,872.26v-693A27.22,27.22,0,0,1,430.22,152H917.78A27.22,27.22,0,0,1,945,179.22v693A27.22,27.22,0,0,1,917.78,899.48ZM888,581.76V332a22,22,0,0,0-22-22H491a22,22,0,0,0-22,22V581.76a22,22,0,0,0,22,22H866A22,22,0,0,0,888,581.76Z" transform="translate(-403 -152)" fill="#7a7a7a"/><path d="M960,884.78A27.22,27.22,0,0,1,932.78,912H430.22A27.22,27.22,0,0,1,403,884.78V872.26a27.22,27.22,0,0,0,27.22,27.22H917.78A27.22,27.22,0,0,0,945,872.26v-693A27.22,27.22,0,0,0,917.78,152h15A27.22,27.22,0,0,1,960,179.22Z" transform="translate(-403 -152)" fill="#545454"/><path d="M583,262.07H572.33l-6.85-9.38v9.15h-14.1V232.09h10.08l7.44,10.06V232.09H583Z" transform="translate(-403 -152)"/><path d="M615.68,254.37v7.47H589.22V232.09h26.46v7.46H603.32v3.69h8.61v7.47h-8.61v3.66Z" transform="translate(-403 -152)"/><path d="M651.21,232.09v13.49q0,8.83-4.83,12.79a17,17,0,0,1-11,3.95,17.6,17.6,0,0,1-8.53-2.18,12.32,12.32,0,0,1-5.67-5.76,22.78,22.78,0,0,1-1.63-9.39v-12.9h14.12v13.78a6,6,0,0,0,.41,2.81,1.45,1.45,0,0,0,1.26.58,1.39,1.39,0,0,0,1.48-1.06,14.18,14.18,0,0,0,.31-3.58V232.09Z" transform="translate(-403 -152)"/><path d="M657,232.09h20.82q5.41,0,8.5,2.54a7.93,7.93,0,0,1,3.09,6.37,7.49,7.49,0,0,1-3.63,6.59q5.16,5.49,6.16,14.25H677.3c-.27-3.76-.87-6.53-1.81-8.33a4.65,4.65,0,0,0-4.39-2.69v11H657Zm14.1,6.12v5.73h.39c2.54,0,3.8-.93,3.8-2.79a3,3,0,0,0-.77-2.05,3.23,3.23,0,0,0-2.57-.89Z" transform="translate(-403 -152)"/><path d="M721.79,254.37v7.47H695.32V232.09h26.47v7.46H709.42v3.69H718v7.47h-8.61v3.66Z" transform="translate(-403 -152)"/><path d="M752.82,233.61,749.31,243q-3.43-4.35-7.91-4.35c-1.66,0-2.49.58-2.49,1.75q0,.56.78,1.11a22.19,22.19,0,0,0,4.11,1.78,41.34,41.34,0,0,1,5.63,2.44,7.58,7.58,0,0,1,3,2.82,7.88,7.88,0,0,1,1,4,8.13,8.13,0,0,1-3.88,7.28q-3.88,2.51-11.42,2.5a42.32,42.32,0,0,1-14.58-2.24l3.44-9.94a11.53,11.53,0,0,0,3.73,3.47,8.53,8.53,0,0,0,4.27,1.29,2.83,2.83,0,0,0,1.68-.49,1.42,1.42,0,0,0,.68-1.19,1.75,1.75,0,0,0-.66-1.27,13.11,13.11,0,0,0-3.47-1.67,33.33,33.33,0,0,1-4.22-1.87,8.77,8.77,0,0,1-2.91-2.58,7,7,0,0,1-1.23-4.23,8.34,8.34,0,0,1,3.87-7.47q3.86-2.5,11.4-2.51A39.37,39.37,0,0,1,752.82,233.61Z" transform="translate(-403 -152)"/><path d="M783.73,254.37v7.47H757.27V232.09h26.46v7.46H771.37v3.69H780v7.47h-8.6v3.66Z" transform="translate(-403 -152)"/><path d="M785.68,245.27V232.09H814v13.18h-7.1v16.57H792.78V245.27Z" transform="translate(-403 -152)"/></svg>