<svg id="图层_1" data-name="图层 1" xmlns="http://www.w3.org/2000/svg" viewBox="0 0 409.38 126.46"><rect x="0.5" y="0.5" width="408.38" height="125.46" rx="61.37"/><path d="M1073.09,733.16A60.94,60.94,0,0,1,1134,794v2.73a60.93,60.93,0,0,1-60.87,60.86H787.45a60.94,60.94,0,0,1-60.87-60.86V794a60.94,60.94,0,0,1,60.87-60.87h285.64m0-1H787.45A61.87,61.87,0,0,0,725.58,794v2.73a61.86,61.86,0,0,0,61.87,61.86h285.64A61.86,61.86,0,0,0,1135,796.76V794a61.87,61.87,0,0,0-61.87-61.87Z" transform="translate(-725.58 -732.16)"/><path d="M802.44,817.7V770.54h32.32v8H811.93v11.16H831.7v8H811.93v20Z" transform="translate(-725.58 -732.16)" fill="#fff"/><path d="M881.55,817.7H871.23L867.1,807H848.22l-3.89,10.68H834.21l18.36-47.16h10.08ZM864,799l-6.51-17.5L851.14,799Z" transform="translate(-725.58 -732.16)" fill="#fff"/><path d="M886.81,817.7V770.93h9.49v38.79H920v8Z" transform="translate(-725.58 -732.16)" fill="#fff"/><path d="M924.38,802.32l9.3-.9q1.56,9,10.27,9a11.13,11.13,0,0,0,6.79-1.85,5.53,5.53,0,0,0,2.47-4.58,4.38,4.38,0,0,0-.86-2.73,6.16,6.16,0,0,0-2.63-1.85,87,87,0,0,0-8.55-2.43,32.38,32.38,0,0,1-8.9-3.27,13.27,13.27,0,0,1-4.5-4.65,12.14,12.14,0,0,1-1.66-6.18,11.88,11.88,0,0,1,2.14-6.95,13.17,13.17,0,0,1,5.9-4.66,24.14,24.14,0,0,1,9.29-1.57c5.55,0,9.87,1.23,13,3.7s4.76,6,4.94,10.58l-9.53.42q-.63-3.8-2.71-5.31a9.92,9.92,0,0,0-5.92-1.51,11.15,11.15,0,0,0-5.92,1.31,3.67,3.67,0,0,0-.2,6.51q1.89,1.32,8.68,2.89,7.17,1.71,10.37,3.59a13.15,13.15,0,0,1,4.88,4.86A14.47,14.47,0,0,1,962.7,804a13.37,13.37,0,0,1-4.61,10.32q-4.61,4.18-14.41,4.18Q926.34,818.5,924.38,802.32Z" transform="translate(-725.58 -732.16)" fill="#fff"/><path d="M970.74,817.7V770.54h35v8H980.24V789h23.69v7.95H980.24v12.8h26.35v8Z" transform="translate(-725.58 -732.16)" fill="#fff"/><path d="M1072.5,837.64A42.53,42.53,0,1,1,1115,795.12,42.58,42.58,0,0,1,1072.5,837.64Z" transform="translate(-725.58 -732.16)" fill="#fff"/><path d="M1072.49,753.09a42,42,0,1,1-42,42,42.07,42.07,0,0,1,42-42m0-1a43,43,0,1,0,43,43,43,43,0,0,0-43-43Z" transform="translate(-725.58 -732.16)"/></svg>