<svg id="图层_1" data-name="图层 1" xmlns="http://www.w3.org/2000/svg" viewBox="0 0 56.47 56.47"><circle cx="28.23" cy="28.23" r="25.73" fill="none" stroke="#000" stroke-miterlimit="10" stroke-width="5"/><path d="M605,612.85a15.25,15.25,0,0,1-15.24-15.24,15.08,15.08,0,0,1,10-14.26v4.27a11.23,11.23,0,0,0-6.1,10,11.34,11.34,0,0,0,22.68,0,11.18,11.18,0,0,0-5.61-9.75v-4.39A15.25,15.25,0,0,1,605,612.85Zm.37-16.7a2.45,2.45,0,0,1-2.44-2.44V581.52a2.44,2.44,0,1,1,4.87,0v12.19A2.44,2.44,0,0,1,605.37,596.15Z" transform="translate(-577.03 -568.15)" fill="#0d0d0d" fill-rule="evenodd"/></svg>