<svg id="图层_1" data-name="图层 1" xmlns="http://www.w3.org/2000/svg" viewBox="0 0 409.38 126.46"><rect x="0.5" y="0.5" width="408.38" height="125.46" rx="61.37"/><path d="M1086.24,478a60.94,60.94,0,0,1,60.87,60.87v2.73a60.93,60.93,0,0,1-60.87,60.86H800.6a60.94,60.94,0,0,1-60.87-60.86v-2.73A60.94,60.94,0,0,1,800.6,478h285.64m0-1H800.6a61.87,61.87,0,0,0-61.87,61.87v2.73a61.87,61.87,0,0,0,61.87,61.86h285.64a61.87,61.87,0,0,0,61.87-61.86v-2.73A61.87,61.87,0,0,0,1086.24,477Z" transform="translate(-738.73 -477)"/><circle cx="63.88" cy="62.58" r="42.52" fill="#fff"/><path d="M802.62,497.56a42,42,0,1,1-42,42,42.07,42.07,0,0,1,42-42m0-1a43,43,0,1,0,43,43,43,43,0,0,0-43-43Z" transform="translate(-738.73 -477)"/><path d="M900.83,563.71V524.53h-14v-8h37.46v8h-14v39.18Z" transform="translate(-738.73 -477)" fill="#fff"/><path d="M930.49,563.71V516.55h20q7.69,0,11,1.27a11.41,11.41,0,0,1,5.42,4.41,13.1,13.1,0,0,1,2.11,7.51,12.32,12.32,0,0,1-3.23,8.91q-3.24,3.38-9.2,4.25a22.26,22.26,0,0,1,5.06,3.94,54.33,54.33,0,0,1,5.45,7.67l5.73,9.2H961.49l-6.89-10.26a67.61,67.61,0,0,0-5.05-7,7.47,7.47,0,0,0-2.82-1.93,15.71,15.71,0,0,0-4.79-.53h-2v19.69ZM940,536.5H947a43,43,0,0,0,8.24-.47,5.23,5.23,0,0,0,2.86-1.88,6,6,0,0,0,1.1-3.77,5.23,5.23,0,0,0-4.08-5.5,46.78,46.78,0,0,0-7.73-.35H940Z" transform="translate(-738.73 -477)" fill="#fff"/><path d="M977.91,516.55h9.49v25.54a52.61,52.61,0,0,0,.35,7.75,7.56,7.56,0,0,0,3,4.83,10.53,10.53,0,0,0,6.27,1.7,10.73,10.73,0,0,0,5.39-1.2,6.3,6.3,0,0,0,2.85-3.35c.51-1.42.76-4.49.76-9.18V516.55h9.49v24.77q0,9.49-1.23,13.72a11.84,11.84,0,0,1-5.57,6.85q-4.34,2.63-11.43,2.62-7.38,0-11.52-2.17a13.14,13.14,0,0,1-6-6.11q-1.86-3.94-1.86-14.52Z" transform="translate(-738.73 -477)" fill="#fff"/><path d="M1025.57,563.71V516.55h35v8h-25.49V535h23.69v7.95h-23.69v12.8h26.36v8Z" transform="translate(-738.73 -477)" fill="#fff"/></svg>